<?xml version="1.0" encoding="UTF-8" standalone="no"?>
<!DOCTYPE svg PUBLIC "-//W3C//DTD SVG 1.1//EN" "http://www.w3.org/Graphics/SVG/1.1/DTD/svg11.dtd">
<svg width="100%" height="100%" viewBox="0 0 9 5" version="1.1" xmlns="http://www.w3.org/2000/svg" xmlns:xlink="http://www.w3.org/1999/xlink" xml:space="preserve" xmlns:serif="http://www.serif.com/" style="fill-rule:evenodd;clip-rule:evenodd;stroke-linejoin:round;stroke-miterlimit:2;">
    <g id="Path_14450" transform="matrix(0.0488312,0.998807,-0.998807,0.0488312,8.60368,-0.210189)">
        <path d="M4.37,8.74C4.105,8.74 3.85,8.634 3.663,8.447L0.293,5.077C-0.095,4.689 -0.095,4.051 0.293,3.663L3.662,0.293C3.85,0.105 4.104,-0 4.37,-0C4.918,-0 5.37,0.451 5.37,1C5.37,1.265 5.264,1.52 5.077,1.707L2.414,4.37L5.077,7.033C5.264,7.22 5.37,7.475 5.37,7.74C5.37,8.289 4.919,8.74 4.37,8.74Z" style="fill:rgb(160,160,160);fill-rule:nonzero;"/>
    </g>
</svg>
